<svg width="24" height="24" viewBox="0 0 24 24" fill="none" xmlns="http://www.w3.org/2000/svg">
<path d="M3.99951 3H19.9996C20.5519 3 20.9996 3.44764 20.9996 3.99987L20.9998 5.58569C20.9999 5.85097 20.8945 6.10538 20.7069 6.29295L14.2924 12.7071C14.1049 12.8946 13.9995 13.149 13.9995 13.4142V19.7192C13.9995 20.3698 13.3881 20.8472 12.757 20.6894L10.757 20.1894C10.3118 20.0781 9.99951 19.6781 9.99951 19.2192V13.4142C9.99951 13.149 9.89415 12.8946 9.70662 12.7071L3.2924 6.29289C3.10486 6.10536 2.99951 5.851 2.99951 5.58579V4C2.99951 3.44772 3.44722 3 3.99951 3Z" stroke="#797979" stroke-width="1.5" stroke-linecap="round" stroke-linejoin="round"/>
</svg>
